<svg xmlns="http://www.w3.org/2000/svg" xmlns:xlink="http://www.w3.org/1999/xlink" version="1.1" class="clearos-svg clearfoundation app-vendor-clearfoundation app-free app-category-system app-sub-category-storage" viewBox="0 0 400 400" preserveAspectRatio="xMinYMin">
<g>
	<path fill="#686868" d="M347.531,284.047H223.823c-13.606,0-24.636,11.03-24.636,24.636c0,13.606,11.03,24.636,24.636,24.636
		h123.708c13.606,0,24.636-11.03,24.636-24.636C372.167,295.077,361.138,284.047,347.531,284.047z"/>
	<path fill="#686868" d="M176.057,313.692c2.559,0,5.103-0.041,7.632-0.116c-0.195-1.605-0.306-3.235-0.306-4.893
		c0-22.242,18.031-40.273,40.273-40.273h86.915c6.574-6.876,11.136-14.141,13.27-21.5c0.218,0.752,0.353,1.509,0.439,2.268v-76.54
		c-0.003,39.04-66.363,74.598-148.223,74.598c-81.861,0-148.223-35.559-148.223-74.6v75.706c0.086-0.843,0.221-1.656,0.439-2.409
		C38.255,280.348,101.15,313.692,176.057,313.692z"/>
	<path fill="#686868" d="M176.057,229.645c74.907,0,137.803-32.366,147.784-66.782c0.218,0.752,0.353,1.509,0.439,2.268V89.568
		c-0.003,39.04-66.363,74.598-148.223,74.598c-81.861,0-148.223-35.559-148.223-74.6v74.728c0.086-0.843,0.221-1.656,0.439-2.409
		C38.255,196.301,101.15,229.645,176.057,229.645z"/>
	<path fill="#686868" d="M176.057,146.575c74.907,0,137.803-32.366,147.784-66.782c0.218,0.752,0.353,1.509,0.439,2.268V80.77
		c0-42.1-66.362-76.229-148.223-76.229S27.834,38.67,27.834,80.77v0.454c0.086-0.843,0.221-1.656,0.439-2.409
		C38.255,113.231,101.15,146.575,176.057,146.575z"/>
	<path fill="#686868" d="M324.28,268.411v-11.725c0,3.956-0.693,7.874-2.003,11.725H324.28z"/>
	<path fill="#686868" d="M190.086,330.928c-4.619,0.231-9.296,0.355-14.029,0.355c-81.861,0-148.223-35.559-148.223-74.6v56.032
		h0.544c-0.354,2.148-0.544,4.32-0.544,6.515c0,42.1,66.362,76.229,148.223,76.229c61.354,0,114.001-19.172,136.528-46.502h-88.929
		C209.638,348.957,197.299,341.792,190.086,330.928z"/>
</g>
</svg>
